<?xml version="1.0" encoding="UTF-8"?>
<mxfile host="Electron" modified="2025-09-24T18:24:32.000Z" agent="Mozilla/5.0" etag="" version="22.1.16" type="device">
  <diagram id="arduino-autoclave-schema" name="Schéma Électronique Autoclave">
    <mxGraphModel dx="1422" dy="754" grid="1" gridSize="10" guides="1" tooltips="1" connect="1" arrows="1" fold="1" page="1" pageScale="1" pageWidth="1654" pageHeight="1169" math="0" shadow="0">
      <root>
        <mxCell id="0" />
        <mxCell id="1" parent="0" />
        
        <!-- Title -->
        <mxCell id="title" value="SCHÉMA ÉLECTRONIQUE - CONTRÔLEUR AUTOCLAVE" style="text;html=1;strokeColor=none;fillColor=none;align=center;verticalAlign=middle;whiteSpace=wrap;rounded=0;fontSize=18;fontStyle=1" vertex="1" parent="1">
          <mxGeometry x="400" y="20" width="600" height="30" as="geometry" />
        </mxCell>
        
        <mxCell id="warning" value="⚠️ HAUTE TENSION 220V - DANGER MORTEL ⚠️" style="text;html=1;strokeColor=#d6b656;fillColor=#fff2cc;align=center;verticalAlign=middle;whiteSpace=wrap;rounded=0;fontSize=14;fontStyle=1" vertex="1" parent="1">
          <mxGeometry x="400" y="55" width="600" height="25" as="geometry" />
        </mxCell>

        <!-- Arduino Mega32U4 -->
        <mxCell id="arduino" value="Arduino Mega32U4" style="rounded=0;whiteSpace=wrap;html=1;fillColor=#1ba1e2;fontColor=#ffffff;strokeColor=#006EAF;fontSize=14;fontStyle=1" vertex="1" parent="1">
          <mxGeometry x="80" y="120" width="200" height="400" as="geometry" />
        </mxCell>

        <!-- Arduino Pins -->
        <mxCell id="pin_5v" value="+5V" style="ellipse;whiteSpace=wrap;html=1;fillColor=#f8cecc;strokeColor=#b85450;" vertex="1" parent="1">
          <mxGeometry x="90" y="160" width="30" height="20" as="geometry" />
        </mxCell>
        
        <mxCell id="pin_gnd" value="GND" style="ellipse;whiteSpace=wrap;html=1;fillColor=#000000;fontColor=#ffffff;" vertex="1" parent="1">
          <mxGeometry x="90" y="190" width="30" height="20" as="geometry" />
        </mxCell>
        
        <mxCell id="pin_2" value="Pin 2&#xa;CLK" style="ellipse;whiteSpace=wrap;html=1;fillColor=#fff2cc;strokeColor=#d6b656;" vertex="1" parent="1">
          <mxGeometry x="90" y="230" width="40" height="30" as="geometry" />
        </mxCell>
        
        <mxCell id="pin_3" value="Pin 3&#xa;DIO" style="ellipse;whiteSpace=wrap;html=1;fillColor=#fff2cc;strokeColor=#d6b656;" vertex="1" parent="1">
          <mxGeometry x="90" y="270" width="40" height="30" as="geometry" />
        </mxCell>
        
        <mxCell id="pin_9" value="Pin 9&#xa;Relay" style="ellipse;whiteSpace=wrap;html=1;fillColor=#dae8fc;strokeColor=#6c8ebf;" vertex="1" parent="1">
          <mxGeometry x="90" y="310" width="40" height="30" as="geometry" />
        </mxCell>
        
        <mxCell id="pin_10" value="Pin 10&#xa;LED" style="ellipse;whiteSpace=wrap;html=1;fillColor=#d5e8d4;strokeColor=#82b366;" vertex="1" parent="1">
          <mxGeometry x="90" y="350" width="40" height="30" as="geometry" />
        </mxCell>
        
        <mxCell id="pin_11" value="Pin 11&#xa;SW+" style="ellipse;whiteSpace=wrap;html=1;fillColor=#e1d5e7;strokeColor=#9673a6;" vertex="1" parent="1">
          <mxGeometry x="90" y="390" width="40" height="30" as="geometry" />
        </mxCell>
        
        <mxCell id="pin_12" value="Pin 12&#xa;SW-" style="ellipse;whiteSpace=wrap;html=1;fillColor=#e1d5e7;strokeColor=#9673a6;" vertex="1" parent="1">
          <mxGeometry x="90" y="430" width="40" height="30" as="geometry" />
        </mxCell>
        
        <mxCell id="pin_a0" value="Pin A0&#xa;Water" style="ellipse;whiteSpace=wrap;html=1;fillColor=#f0f0f0;strokeColor=#666666;" vertex="1" parent="1">
          <mxGeometry x="90" y="470" width="40" height="30" as="geometry" />
        </mxCell>
        
        <mxCell id="pin_a5" value="Pin A5&#xa;Press." style="ellipse;whiteSpace=wrap;html=1;fillColor=#e6f7ff;strokeColor=#36c9dd;" vertex="1" parent="1">
          <mxGeometry x="200" y="470" width="40" height="30" as="geometry" />
        </mxCell>

        <!-- TM1637 Display -->
        <mxCell id="display" value="TM1637&#xa;4-Digit Display&#xa;8888" style="rounded=0;whiteSpace=wrap;html=1;fillColor=#f5f5f5;strokeColor=#666666;" vertex="1" parent="1">
          <mxGeometry x="400" y="200" width="120" height="80" as="geometry" />
        </mxCell>

        <!-- LED Indicator -->
        <mxCell id="led" value="LED&#xa;Témoin" style="ellipse;whiteSpace=wrap;html=1;fillColor=#fff2cc;strokeColor=#d6b656;" vertex="1" parent="1">
          <mxGeometry x="400" y="350" width="60" height="40" as="geometry" />
        </mxCell>

        <!-- Relay Module -->
        <mxCell id="relay" value="MODULE RELAIS&#xa;5V → 220V/10A&#xa;&#xa;VCC  GND  IN" style="rounded=0;whiteSpace=wrap;html=1;fillColor=#f5f5f5;strokeColor=#666666;" vertex="1" parent="1">
          <mxGeometry x="400" y="420" width="140" height="100" as="geometry" />
        </mxCell>

        <!-- 220V Contacts -->
        <mxCell id="contacts_220v" value="220V&#xa;Contacts&#xa;NO-COM-NC" style="rounded=0;whiteSpace=wrap;html=1;fillColor=#f8cecc;strokeColor=#b85450;fontStyle=1" vertex="1" parent="1">
          <mxGeometry x="580" y="440" width="80" height="60" as="geometry" />
        </mxCell>

        <!-- Water Sensors -->
        <mxCell id="water_sensors" value="SONDES EAU&#xa;2x Vis Inox&#xa;&#xa;+5V  A0  GND&#xa;   100kΩ" style="rounded=0;whiteSpace=wrap;html=1;fillColor=#f5f5f5;strokeColor=#666666;" vertex="1" parent="1">
          <mxGeometry x="700" y="340" width="100" height="120" as="geometry" />
        </mxCell>

        <!-- Pressure Sensor -->
        <mxCell id="pressure_sensor" value="CAPTEUR&#xa;PRESSION&#xa;0-30 PSI&#xa;&#xa;+5V Signal GND" style="rounded=0;whiteSpace=wrap;html=1;fillColor=#f5f5f5;strokeColor=#666666;" vertex="1" parent="1">
          <mxGeometry x="850" y="400" width="100" height="80" as="geometry" />
        </mxCell>

        <!-- Switches -->
        <mxCell id="switch_inc" value="BOUTON +&#xa;INC" style="rounded=0;whiteSpace=wrap;html=1;fillColor=#e1d5e7;strokeColor=#9673a6;" vertex="1" parent="1">
          <mxGeometry x="1000" y="350" width="80" height="60" as="geometry" />
        </mxCell>
        
        <mxCell id="switch_dec" value="BOUTON -&#xa;DEC" style="rounded=0;whiteSpace=wrap;html=1;fillColor=#e1d5e7;strokeColor=#9673a6;" vertex="1" parent="1">
          <mxGeometry x="1000" y="420" width="80" height="60" as="geometry" />
        </mxCell>

        <!-- Power Supply -->
        <mxCell id="power_supply" value="ALIMENTATION&#xa;220V → 5V&#xa;Transformateur&#xa;HLK-PM01" style="rounded=0;whiteSpace=wrap;html=1;fillColor=#f5f5f5;strokeColor=#666666;" vertex="1" parent="1">
          <mxGeometry x="80" y="600" width="150" height="100" as="geometry" />
        </mxCell>

        <!-- 220V Input -->
        <mxCell id="input_220v" value="220V&#xa;SECTEUR&#xa;⚠️DANGER⚠️" style="rounded=0;whiteSpace=wrap;html=1;fillColor=#f8cecc;strokeColor=#b85450;fontStyle=1" vertex="1" parent="1">
          <mxGeometry x="280" y="600" width="100" height="100" as="geometry" />
        </mxCell>

        <!-- Main Switch -->
        <mxCell id="main_switch" value="INTER&#xa;PRIN." style="rounded=0;whiteSpace=wrap;html=1;fillColor=#f5f5f5;strokeColor=#666666;" vertex="1" parent="1">
          <mxGeometry x="420" y="625" width="60" height="50" as="geometry" />
        </mxCell>

        <!-- Heating Element -->
        <mxCell id="heating_element" value="RÉSISTANCE&#xa;CHAUFFAGE&#xa;220V / 2000W&#xa;⚠️HAUTE TENSION⚠️" style="rounded=0;whiteSpace=wrap;html=1;fillColor=#f8cecc;strokeColor=#b85450;fontStyle=1" vertex="1" parent="1">
          <mxGeometry x="700" y="600" width="120" height="100" as="geometry" />
        </mxCell>

        <!-- Connections/Wires -->
        
        <!-- Display connections -->
        <mxCell id="wire_clk" value="" style="endArrow=none;html=1;strokeColor=#d79b00;strokeWidth=3;" edge="1" parent="1">
          <mxGeometry width="50" height="50" relative="1" as="geometry">
            <mxPoint x="130" y="245" as="sourcePoint" />
            <mxPoint x="400" y="220" as="targetPoint" />
          </mxGeometry>
        </mxCell>
        
        <mxCell id="wire_dio" value="" style="endArrow=none;html=1;strokeColor=#d79b00;strokeWidth=3;" edge="1" parent="1">
          <mxGeometry width="50" height="50" relative="1" as="geometry">
            <mxPoint x="130" y="285" as="sourcePoint" />
            <mxPoint x="400" y="240" as="targetPoint" />
          </mxGeometry>
        </mxCell>

        <!-- LED connection -->
        <mxCell id="wire_led" value="" style="endArrow=none;html=1;strokeColor=#82b366;strokeWidth=3;" edge="1" parent="1">
          <mxGeometry width="50" height="50" relative="1" as="geometry">
            <mxPoint x="130" y="365" as="sourcePoint" />
            <mxPoint x="400" y="370" as="targetPoint" />
          </mxGeometry>
        </mxCell>

        <!-- Relay connection -->
        <mxCell id="wire_relay" value="" style="endArrow=none;html=1;strokeColor=#6c8ebf;strokeWidth=3;" edge="1" parent="1">
          <mxGeometry width="50" height="50" relative="1" as="geometry">
            <mxPoint x="130" y="325" as="sourcePoint" />
            <mxPoint x="400" y="500" as="targetPoint" />
          </mxGeometry>
        </mxCell>

        <!-- Water sensor connection -->
        <mxCell id="wire_water" value="" style="endArrow=none;html=1;strokeColor=#666666;strokeWidth=3;" edge="1" parent="1">
          <mxGeometry width="50" height="50" relative="1" as="geometry">
            <mxPoint x="130" y="485" as="sourcePoint" />
            <mxPoint x="700" y="400" as="targetPoint" />
          </mxGeometry>
        </mxCell>

        <!-- Pressure sensor connection -->
        <mxCell id="wire_pressure" value="" style="endArrow=none;html=1;strokeColor=#36c9dd;strokeWidth=3;" edge="1" parent="1">
          <mxGeometry width="50" height="50" relative="1" as="geometry">
            <mxPoint x="240" y="485" as="sourcePoint" />
            <mxPoint x="850" y="440" as="targetPoint" />
          </mxGeometry>
        </mxCell>

        <!-- Switch connections -->
        <mxCell id="wire_sw_inc" value="" style="endArrow=none;html=1;strokeColor=#9673a6;strokeWidth=3;" edge="1" parent="1">
          <mxGeometry width="50" height="50" relative="1" as="geometry">
            <mxPoint x="130" y="405" as="sourcePoint" />
            <mxPoint x="1000" y="380" as="targetPoint" />
          </mxGeometry>
        </mxCell>
        
        <mxCell id="wire_sw_dec" value="" style="endArrow=none;html=1;strokeColor=#9673a6;strokeWidth=3;" edge="1" parent="1">
          <mxGeometry width="50" height="50" relative="1" as="geometry">
            <mxPoint x="130" y="445" as="sourcePoint" />
            <mxPoint x="1000" y="450" as="targetPoint" />
          </mxGeometry>
        </mxCell>

        <!-- 220V high voltage connections -->
        <mxCell id="wire_220v_1" value="" style="endArrow=none;html=1;strokeColor=#b85450;strokeWidth=4;" edge="1" parent="1">
          <mxGeometry width="50" height="50" relative="1" as="geometry">
            <mxPoint x="380" y="650" as="sourcePoint" />
            <mxPoint x="420" y="650" as="targetPoint" />
          </mxGeometry>
        </mxCell>
        
        <mxCell id="wire_220v_2" value="" style="endArrow=none;html=1;strokeColor=#b85450;strokeWidth=4;" edge="1" parent="1">
          <mxGeometry width="50" height="50" relative="1" as="geometry">
            <mxPoint x="480" y="650" as="sourcePoint" />
            <mxPoint x="580" y="470" as="targetPoint" />
          </mxGeometry>
        </mxCell>
        
        <mxCell id="wire_220v_3" value="" style="endArrow=none;html=1;strokeColor=#b85450;strokeWidth=4;" edge="1" parent="1">
          <mxGeometry width="50" height="50" relative="1" as="geometry">
            <mxPoint x="660" y="470" as="sourcePoint" />
            <mxPoint x="700" y="650" as="targetPoint" />
          </mxGeometry>
        </mxCell>

        <!-- Neutral line -->
        <mxCell id="wire_neutral" value="" style="endArrow=none;html=1;strokeColor=#0066cc;strokeWidth=4;" edge="1" parent="1">
          <mxGeometry width="50" height="50" relative="1" as="geometry">
            <mxPoint x="330" y="680" as="sourcePoint" />
            <mxPoint x="760" y="680" as="targetPoint" />
          </mxGeometry>
        </mxCell>

        <!-- Power bus +5V -->
        <mxCell id="power_bus" value="" style="endArrow=none;html=1;strokeColor=#d6b656;strokeWidth=4;" edge="1" parent="1">
          <mxGeometry width="50" height="50" relative="1" as="geometry">
            <mxPoint x="120" y="170" as="sourcePoint" />
            <mxPoint x="900" y="170" as="targetPoint" />
          </mxGeometry>
        </mxCell>

        <!-- Ground bus -->
        <mxCell id="ground_bus" value="" style="endArrow=none;html=1;strokeColor=#000000;strokeWidth=4;" edge="1" parent="1">
          <mxGeometry width="50" height="50" relative="1" as="geometry">
            <mxPoint x="120" y="200" as="sourcePoint" />
            <mxPoint x="1080" y="200" as="targetPoint" />
          </mxGeometry>
        </mxCell>

        <!-- Legend -->
        <mxCell id="legend_box" value="" style="rounded=0;whiteSpace=wrap;html=1;fillColor=#ffffff;strokeColor=#000000;" vertex="1" parent="1">
          <mxGeometry x="80" y="750" width="300" height="180" as="geometry" />
        </mxCell>
        
        <mxCell id="legend_title" value="LÉGENDE" style="text;html=1;strokeColor=none;fillColor=none;align=center;verticalAlign=middle;whiteSpace=wrap;rounded=0;fontSize=14;fontStyle=1" vertex="1" parent="1">
          <mxGeometry x="180" y="760" width="100" height="20" as="geometry" />
        </mxCell>
        
        <mxCell id="legend_5v" value="+5V (Jaune)" style="text;html=1;strokeColor=none;fillColor=none;align=left;verticalAlign=middle;whiteSpace=wrap;rounded=0;" vertex="1" parent="1">
          <mxGeometry x="120" y="785" width="100" height="15" as="geometry" />
        </mxCell>
        
        <mxCell id="legend_5v_line" value="" style="endArrow=none;html=1;strokeColor=#d6b656;strokeWidth=3;" edge="1" parent="1">
          <mxGeometry width="50" height="50" relative="1" as="geometry">
            <mxPoint x="90" y="792" as="sourcePoint" />
            <mxPoint x="115" y="792" as="targetPoint" />
          </mxGeometry>
        </mxCell>
        
        <mxCell id="legend_gnd" value="GND (Noir)" style="text;html=1;strokeColor=none;fillColor=none;align=left;verticalAlign=middle;whiteSpace=wrap;rounded=0;" vertex="1" parent="1">
          <mxGeometry x="120" y="805" width="100" height="15" as="geometry" />
        </mxCell>
        
        <mxCell id="legend_gnd_line" value="" style="endArrow=none;html=1;strokeColor=#000000;strokeWidth=3;" edge="1" parent="1">
          <mxGeometry width="50" height="50" relative="1" as="geometry">
            <mxPoint x="90" y="812" as="sourcePoint" />
            <mxPoint x="115" y="812" as="targetPoint" />
          </mxGeometry>
        </mxCell>
        
        <mxCell id="legend_220v" value="220V (DANGER)" style="text;html=1;strokeColor=none;fillColor=none;align=left;verticalAlign=middle;whiteSpace=wrap;rounded=0;" vertex="1" parent="1">
          <mxGeometry x="120" y="825" width="100" height="15" as="geometry" />
        </mxCell>
        
        <mxCell id="legend_220v_line" value="" style="endArrow=none;html=1;strokeColor=#b85450;strokeWidth=4;" edge="1" parent="1">
          <mxGeometry width="50" height="50" relative="1" as="geometry">
            <mxPoint x="90" y="832" as="sourcePoint" />
            <mxPoint x="115" y="832" as="targetPoint" />
          </mxGeometry>
        </mxCell>
        
        <mxCell id="legend_digital" value="Signal Digital" style="text;html=1;strokeColor=none;fillColor=none;align=left;verticalAlign=middle;whiteSpace=wrap;rounded=0;" vertex="1" parent="1">
          <mxGeometry x="120" y="845" width="100" height="15" as="geometry" />
        </mxCell>
        
        <mxCell id="legend_digital_line" value="" style="endArrow=none;html=1;strokeColor=#d79b00;strokeWidth=3;" edge="1" parent="1">
          <mxGeometry width="50" height="50" relative="1" as="geometry">
            <mxPoint x="90" y="852" as="sourcePoint" />
            <mxPoint x="115" y="852" as="targetPoint" />
          </mxGeometry>
        </mxCell>
        
        <mxCell id="legend_analog" value="Signal Analogique" style="text;html=1;strokeColor=none;fillColor=none;align=left;verticalAlign=middle;whiteSpace=wrap;rounded=0;" vertex="1" parent="1">
          <mxGeometry x="120" y="865" width="120" height="15" as="geometry" />
        </mxCell>
        
        <mxCell id="legend_analog_line" value="" style="endArrow=none;html=1;strokeColor=#36c9dd;strokeWidth=3;" edge="1" parent="1">
          <mxGeometry width="50" height="50" relative="1" as="geometry">
            <mxPoint x="90" y="872" as="sourcePoint" />
            <mxPoint x="115" y="872" as="targetPoint" />
          </mxGeometry>
        </mxCell>
        
        <mxCell id="legend_warning1" value="⚠️ Isolation galvanique requise" style="text;html=1;strokeColor=none;fillColor=none;align=left;verticalAlign=middle;whiteSpace=wrap;rounded=0;fontSize=10;" vertex="1" parent="1">
          <mxGeometry x="90" y="890" width="180" height="15" as="geometry" />
        </mxCell>
        
        <mxCell id="legend_warning2" value="⚠️ Vérification électricien obligatoire" style="text;html=1;strokeColor=none;fillColor=none;align=left;verticalAlign=middle;whiteSpace=wrap;rounded=0;fontSize=10;" vertex="1" parent="1">
          <mxGeometry x="90" y="905" width="200" height="15" as="geometry" />
        </mxCell>

        <!-- Safety Notes -->
        <mxCell id="safety_box" value="" style="rounded=0;whiteSpace=wrap;html=1;fillColor=#f8cecc;strokeColor=#b85450;" vertex="1" parent="1">
          <mxGeometry x="420" y="750" width="350" height="180" as="geometry" />
        </mxCell>
        
        <mxCell id="safety_title" value="SÉCURITÉS IMPLÉMENTÉES" style="text;html=1;strokeColor=none;fillColor=none;align=center;verticalAlign=middle;whiteSpace=wrap;rounded=0;fontSize=14;fontStyle=1" vertex="1" parent="1">
          <mxGeometry x="545" y="760" width="200" height="20" as="geometry" />
        </mxCell>
        
        <mxCell id="safety_list" value="✓ Détection eau (2 sondes inox)&#xa;✓ Contrôle pression (0-30 PSI)&#xa;✓ Timer sécurisé (1-99 min)&#xa;✓ Relais normalement ouvert&#xa;✓ Coupure totale par interrupteur&#xa;✓ Isolation galvanique 5V/220V&#xa;✓ LED témoin état pompe&#xa;✓ Anti-rebond boutons&#xa;✓ Mode DEBUG sécurisé" style="text;html=1;strokeColor=none;fillColor=none;align=left;verticalAlign=top;whiteSpace=wrap;rounded=0;fontSize=11;" vertex="1" parent="1">
          <mxGeometry x="440" y="785" width="310" height="135" as="geometry" />
        </mxCell>

        <!-- Components List -->
        <mxCell id="components_box" value="" style="rounded=0;whiteSpace=wrap;html=1;fillColor=#ffffff;strokeColor=#000000;" vertex="1" parent="1">
          <mxGeometry x="820" y="750" width="250" height="180" as="geometry" />
        </mxCell>
        
        <mxCell id="components_title" value="COMPOSANTS" style="text;html=1;strokeColor=none;fillColor=none;align=center;verticalAlign=middle;whiteSpace=wrap;rounded=0;fontSize=14;fontStyle=1" vertex="1" parent="1">
          <mxGeometry x="920" y="760" width="100" height="20" as="geometry" />
        </mxCell>
        
        <mxCell id="components_list" value="• Arduino Mega32U4&#xa;• TM1637 (4 digits)&#xa;• Module relais 5V/10A&#xa;• Capteur 0-30 PSI&#xa;• 2x Vis inox M6&#xa;• Résistance 100kΩ&#xa;• 2x Boutons poussoirs&#xa;• LED témoin&#xa;• Alim. HLK-PM01" style="text;html=1;strokeColor=none;fillColor=none;align=left;verticalAlign=top;whiteSpace=wrap;rounded=0;fontSize=11;" vertex="1" parent="1">
          <mxGeometry x="840" y="785" width="210" height="135" as="geometry" />
        </mxCell>

      </root>
    </mxGraphModel>
  </diagram>
</mxfile>